<?xml version="1.0" encoding="UTF-8"?>
<svg width="256" height="256" viewBox="0 0 256 256" xmlns="http://www.w3.org/2000/svg">
  <defs>
    <!-- 主要渐变 -->
    <linearGradient id="mainGradient" x1="0%" y1="0%" x2="100%" y2="100%">
      <stop offset="0%" style="stop-color:#667eea;stop-opacity:1" />
      <stop offset="100%" style="stop-color:#764ba2;stop-opacity:1" />
    </linearGradient>
    
    <!-- 水印渐变 -->
    <linearGradient id="watermarkGradient" x1="0%" y1="0%" x2="100%" y2="100%">
      <stop offset="0%" style="stop-color:#4facfe;stop-opacity:1" />
      <stop offset="100%" style="stop-color:#00f2fe;stop-opacity:1" />
    </linearGradient>
    
    <!-- 阴影 -->
    <filter id="shadow">
      <feDropShadow dx="2" dy="2" stdDeviation="4" flood-color="rgba(0,0,0,0.3)"/>
    </filter>
  </defs>
  
  <!-- 背景 -->
  <rect x="16" y="16" width="224" height="224" rx="48" ry="48" 
        fill="url(#mainGradient)" 
        filter="url(#shadow)"/>
  
  <!-- 图片区域 -->
  <rect x="48" y="64" width="160" height="120" rx="12" ry="12" 
        fill="#ffffff" opacity="0.9"/>
  
  <!-- 简化的图片内容 -->
  <path d="M64 140 L96 110 L128 130 L160 100 L192 120 L192 168 L64 168 Z" 
        fill="#e0e7ff" opacity="0.7"/>
  
  <!-- 太阳 -->
  <circle cx="176" cy="88" r="12" fill="#fbbf24" opacity="0.8"/>
  
  <!-- 水印文字 -->
  <text x="128" y="140" 
        font-family="Arial, sans-serif" 
        font-size="16" 
        font-weight="bold" 
        fill="url(#watermarkGradient)" 
        text-anchor="middle" 
        opacity="0.8"
        transform="rotate(-15 128 140)">MARK</text>
  
  <!-- 水印边框 -->
  <rect x="88" y="120" width="80" height="40" rx="4" ry="4" 
        fill="none" 
        stroke="url(#watermarkGradient)" 
        stroke-width="2" 
        opacity="0.6"
        stroke-dasharray="4,2"
        transform="rotate(-15 128 140)"/>
  
  <!-- 底部工具栏 -->
  <rect x="48" y="200" width="160" height="24" rx="12" ry="12" 
        fill="rgba(255,255,255,0.2)"/>
  
  <!-- 工具按钮 -->
  <circle cx="72" cy="212" r="4" fill="#4ade80"/>
  <circle cx="96" cy="212" r="4" fill="#f59e0b"/>
  <circle cx="120" cy="212" r="4" fill="#ef4444"/>
  
  <!-- 设置图标 -->
  <circle cx="184" cy="212" r="6" fill="none" stroke="#ffffff" stroke-width="1.5" opacity="0.8"/>
  <circle cx="184" cy="212" r="2" fill="#ffffff" opacity="0.8"/>
</svg> 