<?xml version="1.0" encoding="UTF-8"?>
<svg width="512" height="512" viewBox="0 0 512 512" xmlns="http://www.w3.org/2000/svg">
  <defs>
    <!-- 渐变定义 -->
    <linearGradient id="backgroundGradient" x1="0%" y1="0%" x2="100%" y2="100%">
      <stop offset="0%" style="stop-color:#667eea;stop-opacity:1" />
      <stop offset="100%" style="stop-color:#764ba2;stop-opacity:1" />
    </linearGradient>
    
    <linearGradient id="imageGradient" x1="0%" y1="0%" x2="100%" y2="100%">
      <stop offset="0%" style="stop-color:#f093fb;stop-opacity:1" />
      <stop offset="100%" style="stop-color:#f5576c;stop-opacity:1" />
    </linearGradient>
    
    <linearGradient id="watermarkGradient" x1="0%" y1="0%" x2="100%" y2="100%">
      <stop offset="0%" style="stop-color:#4facfe;stop-opacity:1" />
      <stop offset="100%" style="stop-color:#00f2fe;stop-opacity:1" />
    </linearGradient>
    
    <!-- 阴影滤镜 -->
    <filter id="shadow" x="-50%" y="-50%" width="200%" height="200%">
      <feDropShadow dx="4" dy="4" stdDeviation="8" flood-color="rgba(0,0,0,0.3)"/>
    </filter>
    
    <!-- 内阴影滤镜 -->
    <filter id="innerShadow" x="-50%" y="-50%" width="200%" height="200%">
      <feOffset dx="0" dy="2"/>
      <feGaussianBlur stdDeviation="4" result="offset-blur"/>
      <feFlood flood-color="rgba(0,0,0,0.2)"/>
      <feComposite in2="offset-blur" operator="in"/>
    </filter>
  </defs>
  
  <!-- 背景圆角矩形 -->
  <rect x="32" y="32" width="448" height="448" rx="80" ry="80" 
        fill="url(#backgroundGradient)" 
        filter="url(#shadow)"/>
  
  <!-- 图片框架 -->
  <rect x="96" y="128" width="320" height="240" rx="16" ry="16" 
        fill="url(#imageGradient)" 
        filter="url(#innerShadow)"/>
  
  <!-- 图片内容区域 -->
  <rect x="112" y="144" width="288" height="208" rx="8" ry="8" 
        fill="#ffffff" opacity="0.9"/>
  
  <!-- 山峰图标（代表图片） -->
  <path d="M140 280 L180 220 L220 260 L260 200 L300 240 L340 180 L380 220 L380 320 L140 320 Z" 
        fill="#e0e7ff" opacity="0.6"/>
  
  <!-- 太阳图标 -->
  <circle cx="320" cy="180" r="20" fill="#fbbf24" opacity="0.8"/>
  
  <!-- 水印文字背景 -->
  <rect x="160" y="200" width="192" height="80" rx="8" ry="8" 
        fill="url(#watermarkGradient)" 
        opacity="0.3" 
        transform="rotate(-15 256 240)"/>
  
  <!-- 水印文字 -->
  <text x="256" y="250" 
        font-family="Arial, sans-serif" 
        font-size="24" 
        font-weight="bold" 
        fill="#ffffff" 
        text-anchor="middle" 
        opacity="0.8"
        transform="rotate(-15 256 240)">WATERMARK</text>
  
  <!-- 装饰性边框 -->
  <rect x="160" y="200" width="192" height="80" rx="8" ry="8" 
        fill="none" 
        stroke="#ffffff" 
        stroke-width="2" 
        opacity="0.6"
        stroke-dasharray="8,4"
        transform="rotate(-15 256 240)"/>
  
  <!-- 顶部工具栏图标 -->
  <rect x="128" y="80" width="256" height="32" rx="16" ry="16" 
        fill="rgba(255,255,255,0.2)"/>
  
  <!-- 工具栏按钮 -->
  <circle cx="160" cy="96" r="8" fill="#4ade80"/>
  <circle cx="192" cy="96" r="8" fill="#f59e0b"/>
  <circle cx="224" cy="96" r="8" fill="#ef4444"/>
  
  <!-- 设置图标 -->
  <g transform="translate(340, 86)">
    <circle cx="10" cy="10" r="8" fill="none" stroke="#ffffff" stroke-width="2" opacity="0.8"/>
    <circle cx="10" cy="10" r="3" fill="#ffffff" opacity="0.8"/>
  </g>
  
  <!-- 底部状态栏 -->
  <rect x="96" y="400" width="320" height="48" rx="24" ry="24" 
        fill="rgba(255,255,255,0.1)"/>
  
  <!-- 进度指示器 -->
  <rect x="128" y="416" width="256" height="16" rx="8" ry="8" 
        fill="rgba(255,255,255,0.2)"/>
  <rect x="128" y="416" width="180" height="16" rx="8" ry="8" 
        fill="url(#watermarkGradient)" opacity="0.8"/>
</svg> 